<svg width="27" height="27" viewBox="0 0 27 27" fill="none" xmlns="http://www.w3.org/2000/svg">
<path d="M6.43478 25V12.6471V10C7.28374 8.82307 7.75979 8.98601 8.6087 10V12.6471V25C7.84498 25.7655 7.36553 25.7349 6.43478 25Z" fill="white" stroke="#C3C9D5"/>
<path d="M19 25.0001V12.6471V10.0001C19.9396 9.18386 20.4029 9.29874 21.1739 10.0001V12.6471V25.0001C20.3251 25.5156 19.8489 25.4862 19 25.0001Z" fill="white" stroke="#C3C9D5"/>
<path d="M12.9565 24.9999V12.647V9.99994C13.72 8.80737 14.2 8.85733 15.1304 9.99994V12.647V24.9999C14.4554 25.8711 13.966 25.8012 12.9565 24.9999Z" fill="white" stroke="#C3C9D5"/>
<path d="M2 12C5.62757 7.71314 8.44017 6.4532 14 5C19.5793 6.44383 21.8317 8.1334 25 12H2Z" stroke="#C3C9D5" stroke-width="1.5"/>
<path d="M17.0544 2.5C17.0544 3.09637 16.7397 3.65343 16.1972 4.06937C15.6544 4.48549 14.8938 4.75 14.0435 4.75C13.1932 4.75 12.4326 4.48549 11.8898 4.06937C11.3473 3.65343 11.0326 3.09637 11.0326 2.5C11.0326 1.90363 11.3473 1.34657 11.8898 0.930635C12.4326 0.514513 13.1932 0.25 14.0435 0.25C14.8938 0.25 15.6544 0.514513 16.1972 0.930635C16.7397 1.34657 17.0544 1.90363 17.0544 2.5Z" fill="#C3C9D5" stroke="white" stroke-width="0.5"/>
</svg>
