<svg width="17" height="17" viewBox="0 0 17 17" fill="none" xmlns="http://www.w3.org/2000/svg">
<path d="M13.1473 1.17991C11.2243 0.781068 10.048 1.23848 8.50564 3.64993C6.88533 1.20234 5.74473 0.660239 3.86398 1.17991C-0.421693 2.34973 -0.667735 8.43636 8.50564 16C16.8011 9.21867 17.9961 2.56187 13.1473 1.17991Z" fill="black" stroke="black" stroke-width="0.8"/>
<path d="M8.5 4L11 2L13 1.5L15 3L15.5 7L14.5 9L9 15.5L8.5 15.25L8 15L3 9.5L1.5 5.5L2 3L4 1.5L6.5 2L8.5 4Z" fill="black"/>
<path d="M8.5 10V4.5V15.5V4M8.5 4L11 2L13 1.5L15 3L15.5 7L14.5 9L9 15.5L8 15L3 9.5L1.5 5.5L2 3L4 1.5L6.5 2L8.5 4Z" stroke="black" stroke-width="0.8"/>
</svg>
