<svg width="15" height="15" viewBox="0 0 15 15" fill="none" xmlns="http://www.w3.org/2000/svg">
<path d="M11.5277 1.15592C9.86108 0.810259 8.84158 1.20669 7.50489 3.2966C6.10062 1.17536 5.1121 0.705541 3.48212 1.15592C-0.232134 2.16977 -0.44537 7.44485 7.50489 14C14.6943 8.12284 15.7299 2.35362 11.5277 1.15592Z" fill="black" stroke="black" stroke-width="0.8"/>
<path d="M7.5 3.60002L9.66667 1.86668L11.4 1.43335L13.1333 2.73335L13.5667 6.20002L12.7 7.93335L7.93333 13.5667L7.5 13.35L7.06667 13.1333L2.73333 8.36668L1.43333 4.90002L1.86667 2.73335L3.6 1.43335L5.76667 1.86668L7.5 3.60002Z" fill="black"/>
<path d="M7.5 8.80002V4.03335V13.5667V3.60002M7.5 3.60002L9.66667 1.86668L11.4 1.43335L13.1333 2.73335L13.5667 6.20002L12.7 7.93335L7.93333 13.5667L7.06667 13.1333L2.73333 8.36668L1.43333 4.90002L1.86667 2.73335L3.6 1.43335L5.76667 1.86668L7.5 3.60002Z" stroke="black" stroke-width="0.8"/>
</svg>
