<svg width="27" height="27" viewBox="0 0 27 27" fill="none" xmlns="http://www.w3.org/2000/svg">
<path d="M2.23644 19.688C0.901349 19.0375 0.593136 18.3616 1.57904 16.0709L6.83823 4.01419L8.15303 1L15.3844 3.41135L20.6436 5.21986L18.014 11.2482C17.2732 12.502 17.5073 13.1563 18.6714 14.2624C20.961 15.7871 22.2519 16.7283 24.588 18.4823C26.6317 22.1259 26.6725 23.1074 23.2732 23.9078L19.9862 23.305C19.3377 25.8124 18.5315 26.4457 16.0418 25.7163L2.23644 19.688Z" fill="#C3C9D5"/>
<path d="M19.9862 23.305C19.3377 25.8124 18.5315 26.4457 16.0418 25.7163L2.23644 19.688C0.901349 19.0375 0.593136 18.3616 1.57904 16.0709L6.83823 4.01419L8.15303 1L15.3844 3.41135L20.6436 5.21986L18.014 11.2482C17.2732 12.502 17.5073 13.1563 18.6714 14.2624C20.961 15.7871 22.2519 16.7283 24.588 18.4823C26.6317 22.1259 26.6725 23.1074 23.2732 23.9078L19.9862 23.305ZM19.9862 23.305C18.684 21.0454 17.7327 19.8419 15.3844 17.8795L12.7548 16.0709C11.3772 15.2727 10.9586 14.6311 12.0974 12.4539L15.3844 4.01419" stroke="#C3C9D5"/>
<path d="M19.9862 25.1135C19.6396 23.2936 19.2813 22.2562 17.5551 20.2908C15.9734 18.8174 15.053 18.0174 13.3006 16.6738C11.7932 15.5619 12.8332 12.4539 12.6929 13.0568L16.1202 3.41138" stroke="white" stroke-width="0.2"/>
<path d="M2.23643 12.4539C6.1252 14.3433 7.80944 17.3199 5.52343 21.4965" stroke="white" stroke-width="0.5"/>
<path d="M1.57904 16.6738L2.89384 13.6596C7.60179 15.5704 6.12203 20.6924 4.86604 20.8937L2.23644 19.688L1.57904 16.6738Z" fill="#C3C9D5" stroke="#C3C9D5" stroke-width="0.5"/>
<path d="M16.6992 19.688C14.2194 20.7693 13.5924 21.8847 13.4122 24.5107M23.2732 18.4823C20.5188 18.806 19.9854 19.7374 19.9862 22.0993" stroke="white" stroke-width="0.5"/>
</svg>
