<svg width="28" height="13" viewBox="0 0 28 13" fill="none" xmlns="http://www.w3.org/2000/svg">
<path d="M7.05095 9.71727C5.57285 3.30265 7.66471 1.63234 14.7449 1C19.5109 1.79579 22.7144 2.63073 21.04 9.71727H7.05095Z" fill="#C3C9D5"/>
<path d="M4.25325 9.71727C0.459992 8.90678 0.695713 10.4815 1.45543 11.3518C2.21515 12.222 25.9898 12.2101 26.6358 11.3518C27.2817 10.4934 27.4457 8.89908 23.8379 9.71727C20.2302 10.5355 4.25325 9.71727 4.25325 9.71727Z" fill="#C3C9D5"/>
<path d="M7.05095 9.71727C5.57285 3.30265 7.66471 1.63234 14.7449 1C19.5109 1.79579 22.7144 2.63073 21.04 9.71727H7.05095Z" stroke="#C3C9D5"/>
<path d="M4.25325 9.71727C0.459992 8.90678 0.695713 10.4815 1.45543 11.3518C2.21515 12.222 25.9898 12.2101 26.6358 11.3518C27.2817 10.4934 27.4457 8.89908 23.8379 9.71727C20.2302 10.5355 4.25325 9.71727 4.25325 9.71727Z" stroke="#C3C9D5"/>
<path d="M6.19995 9C11.6737 9.81602 16.4121 10.3527 22.32 9.5" stroke="white" stroke-width="0.5"/>
</svg>
