<svg width="37" height="17" viewBox="0 0 37 17" fill="none" xmlns="http://www.w3.org/2000/svg">
<path d="M9.2513 12.8872C7.2357 4.13998 10.0882 1.86229 19.7431 1C26.2421 2.08517 30.6105 3.22372 28.3273 12.8872H9.2513Z" fill="#C3C9D5"/>
<path d="M5.43625 12.8872C0.263625 11.782 0.585064 13.9293 1.62105 15.116C2.65703 16.3028 35.077 16.2865 35.9579 15.116C36.8387 13.9456 37.0623 11.7715 32.1427 12.8872C27.223 14.0029 5.43625 12.8872 5.43625 12.8872Z" fill="#C3C9D5"/>
<path d="M9.2513 12.8872C7.2357 4.13998 10.0882 1.86229 19.7431 1C26.2421 2.08517 30.6105 3.22372 28.3273 12.8872H9.2513Z" stroke="#C3C9D5"/>
<path d="M5.43625 12.8872C0.263625 11.782 0.585064 13.9293 1.62105 15.116C2.65703 16.3028 35.077 16.2865 35.9579 15.116C36.8387 13.9456 37.0623 11.7715 32.1427 12.8872C27.223 14.0029 5.43625 12.8872 5.43625 12.8872Z" stroke="#C3C9D5"/>
<path d="M8.09082 11.9091C15.555 13.0218 22.0164 13.7537 30.0726 12.5909" stroke="white" stroke-width="0.5"/>
</svg>
