<svg width="27" height="13" viewBox="0 0 27 13" fill="none" xmlns="http://www.w3.org/2000/svg">
<path d="M22.4673 12.2667H1.53165H1.00805C1.00805 12.2667 0.989933 7.27877 1.00805 4.94319C1.02617 2.60761 1.47276 2.40641 3.10242 4.21085C6.7196 6.14906 8.32634 5.7112 10.4327 2.0138C11.5477 0.588593 12.1112 0.737588 13.0507 2.0138C16.6379 4.3315 19.5859 5.32857 22.9828 6.12643C27.7913 8.45635 26.2742 11.2364 22.4673 12.2667Z" fill="#C3C9D5" stroke="#C3C9D5"/>
<path d="M15.137 2.46472L14.0898 6.12646L15.137 7.59115" stroke="#C3C9D5"/>
<path d="M15.137 2.46472C15.1302 3.96351 14.7923 4.50968 14.0898 5.39411M16.7078 3.19707C16.7696 4.47304 16.4798 5.09658 15.6606 6.12646M18.2786 3.92942C18.3828 5.37084 18.1394 6.00642 17.2314 6.85881" stroke="white" stroke-width="0.5"/>
</svg>
