<svg width="35" height="17" viewBox="0 0 35 17" fill="none" xmlns="http://www.w3.org/2000/svg">
<path d="M29.5807 16H1.70781H1.01072C1.01072 16 0.986597 9.35931 1.01072 6.24981C1.03485 3.14031 1.62942 2.87243 3.79908 5.2748C8.61485 7.85526 10.754 7.2723 13.5584 2.34974C15.0429 0.452269 15.7931 0.650635 17.0438 2.34974C21.8197 5.43543 25.7445 6.76289 30.2671 7.82513C36.6689 10.9271 34.6491 14.6283 29.5807 16Z" fill="#C3C9D5" stroke="#C3C9D5"/>
<path d="M19.8215 2.95007L18.4274 7.82517L19.8215 9.7752" stroke="#C3C9D5"/>
<path d="M19.8215 2.95007C19.8125 4.9455 19.3625 5.67265 18.4274 6.85015M21.9128 3.92509C21.9951 5.62387 21.6092 6.45402 20.5186 7.82517M24.0041 4.90011C24.1429 6.81916 23.8188 7.66535 22.6099 8.80019" stroke="white" stroke-width="0.5"/>
</svg>
