<svg width="32" height="27" viewBox="0 0 32 27" fill="none" xmlns="http://www.w3.org/2000/svg">
<rect x="1" width="25" height="26" fill="white"/>
<path d="M26.7607 26H1.63798H1.00966C1.00966 26 0.98792 20.0145 1.00966 17.2118C1.03141 14.4091 1.56731 14.1677 3.52291 16.333C7.86352 18.6589 9.7916 18.1334 12.3193 13.6965C13.6573 11.9863 14.3335 12.1651 15.4608 13.6965C19.7655 16.4778 23.3031 17.6743 27.3794 18.6317C33.1496 21.4276 31.3291 24.7636 26.7607 26Z" fill="#C3C9D5" stroke="#C3C9D5"/>
<path d="M17.9644 14.2377L16.7078 18.6318L17.9644 20.3894" stroke="#C3C9D5"/>
<path d="M17.9644 14.2377C17.9562 16.0362 17.5507 16.6916 16.7078 17.7529M19.8493 15.1165C19.9235 16.6477 19.5757 17.3959 18.5927 18.6318M21.7343 15.9953C21.8594 17.725 21.5672 18.4877 20.4776 19.5106" stroke="white" stroke-width="0.5"/>
</svg>
