<svg width="13" height="27" viewBox="0 0 13 27" fill="none" xmlns="http://www.w3.org/2000/svg">
<path d="M1.00037 10.9211C1.00133 9.06057 0.999174 8.54143 1.00037 6.15939C1.00158 3.77735 1.00037 1.39765 1.00037 1.39765C2.31065 0.871454 2.9951 0.86622 4.17487 1.39765V6.15939L6.55575 8.54027L8.93662 6.15939V1.39765C10.1138 0.87469 10.8029 0.860262 12.1111 1.39765V6.15939V10.9211C10.9997 13.5859 10.8133 15.0065 12.1111 17.2701C10.5754 20.9365 9.42804 22.8721 6.55575 26C3.96415 22.8702 2.72662 20.9757 1.00037 17.2701C1.96209 14.9718 2.20931 13.6266 1.00037 10.9211Z" fill="#C3C9D5" stroke="#C3C9D5" stroke-width="0.5"/>
</svg>
